<?xml version="1.0" encoding="UTF-8"?>
<svg width="18px" height="23px" viewBox="0 0 18 23" version="1.1" xmlns="http://www.w3.org/2000/svg" xmlns:xlink="http://www.w3.org/1999/xlink">
    <!-- Generator: Sketch 49.1 (51147) - http://www.bohemiancoding.com/sketch -->
    <title>copy</title>
    <desc>Created with Sketch.</desc>
    <defs></defs>
    <g id="Page-1" stroke="none" stroke-width="1" fill="none" fill-rule="evenodd" opacity="0.400000006">
        <g id="Reveive" transform="translate(-929.000000, -430.000000)" fill="#000000" fill-rule="nonzero">
            <g id="Group-12" transform="translate(412.000000, 214.000000)">
                <g id="Group-10" transform="translate(60.000000, 195.000000)">
                    <g id="copy" transform="translate(457.000000, 21.000000)">
                        <path d="M12.2235371,4 L1.77646285,4 C0.796186719,4 0,4.81583519 0,5.8203028 L0,21.1796972 C0,22.1841648 0.796186719,23 1.77646285,23 L12.2235371,23 C13.2038133,23 14,22.1841648 14,21.1796972 L14,5.8203028 C13.9953978,4.81583519 13.199211,4 12.2235371,4 Z M12.7527942,21.1749814 C12.7527942,21.4767932 12.513478,21.7220154 12.2189349,21.7220154 L1.77186062,21.7220154 C1.47731755,21.7220154 1.23800131,21.4767932 1.23800131,21.1749814 L1.23800131,5.8203028 C1.23800131,5.51849094 1.47731755,5.2732688 1.77186062,5.2732688 L12.2189349,5.2732688 C12.513478,5.2732688 12.7527942,5.51849094 12.7527942,5.8203028 L12.7527942,21.1749814 Z" id="Shape"></path>
                        <path d="M16.2235371,0 L5.77646285,0 C4.79618672,0 4,0.815835195 4,1.8203028 C4,2.17398858 4.27613412,2.45693721 4.62130178,2.45693721 C4.96646943,2.45693721 5.24260355,2.17398858 5.24260355,1.8203028 C5.24260355,1.51849094 5.48191979,1.2732688 5.77646285,1.2732688 L16.2235371,1.2732688 C16.5180802,1.2732688 16.7573964,1.51849094 16.7573964,1.8203028 L16.7573964,17.1796972 C16.7573964,17.4815091 16.5180802,17.7267312 16.2235371,17.7267312 C15.8783695,17.7267312 15.6022354,18.0096798 15.6022354,18.3633656 C15.6022354,18.7170514 15.8783695,19 16.2235371,19 C17.2038133,19 18,18.1841648 18,17.1796972 L18,1.8203028 C18,0.815835195 17.2038133,0 16.2235371,0 Z" id="Shape"></path>
                    </g>
                </g>
            </g>
        </g>
    </g>
</svg>