<?xml version="1.0" encoding="UTF-8"?>
<svg width="101px" height="23px" viewBox="0 0 101 23" version="1.1" xmlns="http://www.w3.org/2000/svg" xmlns:xlink="http://www.w3.org/1999/xlink">
    <!-- Generator: Sketch 49.1 (51147) - http://www.bohemiancoding.com/sketch -->
    <title>Logo</title>
    <desc>Created with Sketch.</desc>
    <defs></defs>
    <g id="Page-1" stroke="none" stroke-width="1" fill="none" fill-rule="evenodd">
        <g id="Index" transform="translate(-117.000000, -109.000000)" fill="#FFFFFF">
            <g id="Logo" transform="translate(115.000000, 100.000000)">
                <path d="M25.3266602,17.5751953 C25.3266602,18.4947963 25.2330739,19.3920041 25.0458984,20.2668457 C24.858723,21.1416873 24.5759296,21.9656537 24.1975098,22.7387695 C23.8190899,23.5118854 23.340986,24.2198861 22.7631836,24.862793 C22.1853812,25.5056998 21.5038288,26.0590797 20.7185059,26.5229492 C19.9331829,26.9868187 19.0400441,27.348957 18.0390625,27.609375 C17.0380809,27.869793 15.9272522,28 14.706543,28 L7.62646484,28 L11.3496094,10.4951172 L17.5019531,10.4951172 C18.7877668,10.4951172 19.9169059,10.6700829 20.8894043,11.0200195 C21.8619026,11.3699562 22.6777311,11.8561981 23.3369141,12.4787598 C23.996097,13.1013215 24.4925114,13.8459429 24.8261719,14.7126465 C25.1598324,15.57935 25.3266602,16.5335234 25.3266602,17.5751953 Z M21.1518555,17.8803711 C21.1518555,17.2293262 21.0603036,16.645429 20.8771973,16.1286621 C20.6940909,15.6118952 20.413332,15.174481 20.0349121,14.8164062 C19.6564922,14.4583315 19.1783883,14.1836761 18.6005859,13.9924316 C18.0227836,13.8011872 17.3391967,13.7055664 16.5498047,13.7055664 L14.6333008,13.7055664 L12.2773438,24.8017578 L14.6821289,24.8017578 C15.6749724,24.8017578 16.5701458,24.6369645 17.3676758,24.307373 C18.1652058,23.9777816 18.8447238,23.50985 19.40625,22.9035645 C19.9677762,22.2972789 20.399087,21.5689333 20.7001953,20.7185059 C21.0013036,19.8680784 21.1518555,18.922043 21.1518555,17.8803711 Z M43.5957031,23.8740234 C43.5387367,24.1263033 43.4838056,24.4314761 43.4309082,24.7895508 C43.3780108,25.1476255 43.3291832,25.5199362 43.2844238,25.9064941 C43.2396645,26.2930521 43.2030438,26.6714662 43.1745605,27.041748 C43.1460773,27.4120298 43.1318359,27.731444 43.1318359,28 L39.2255859,28 C39.2255859,27.8779291 39.2316894,27.7212737 39.2438965,27.5300293 C39.2561036,27.3387849 39.270345,27.1434743 39.2866211,26.9440918 C39.3028972,26.7447093 39.3212076,26.5493987 39.3415527,26.3581543 C39.3618979,26.1669099 39.3802083,26.0061855 39.3964844,25.8759766 L39.3476562,25.8759766 C39.1116525,26.193361 38.8675143,26.4985337 38.6152344,26.7915039 C38.3629545,27.0844741 38.0821956,27.3428537 37.7729492,27.5666504 C37.4637029,27.7904471 37.1198749,27.9694818 36.7414551,28.1037598 C36.3630352,28.2380378 35.925621,28.3051758 35.4291992,28.3051758 C34.8188446,28.3051758 34.2756371,28.1953136 33.7995605,27.9755859 C33.3234839,27.7558583 32.9226904,27.4384786 32.597168,27.0234375 C32.2716455,26.6083964 32.0234384,26.1018096 31.8525391,25.5036621 C31.6816398,24.9055146 31.5961914,24.2280311 31.5961914,23.4711914 C31.5961914,23.0887025 31.6389156,22.6187365 31.7243652,22.0612793 C31.8098149,21.5038221 31.9644357,20.9178904 32.1882324,20.3034668 C32.4120291,19.6890432 32.7233053,19.0786977 33.1220703,18.4724121 C33.5208353,17.8661265 34.031491,17.3188501 34.6540527,16.8305664 C35.2766144,16.3422827 36.0293738,15.9475927 36.9123535,15.6464844 C37.7953332,15.3453761 38.834955,15.1948242 40.03125,15.1948242 C40.4951195,15.1948242 40.9610165,15.2131346 41.4289551,15.2497559 C41.8968936,15.2863771 42.3566872,15.3352048 42.8083496,15.3962402 C43.260012,15.4572757 43.6974263,15.5284827 44.1206055,15.6098633 C44.5437847,15.6912439 44.9384747,15.7726233 45.3046875,15.8540039 L43.5957031,23.8740234 Z M40.9711914,18.0268555 C40.784016,17.9861652 40.5764985,17.9556479 40.3486328,17.9353027 C40.1207671,17.9149576 39.9051117,17.9047852 39.7016602,17.9047852 C39.1401339,17.9047852 38.6477886,17.9983715 38.2246094,18.1855469 C37.8014302,18.3727223 37.4331884,18.6168605 37.119873,18.9179688 C36.8065577,19.219077 36.5441091,19.5608705 36.3325195,19.9433594 C36.1209299,20.3258483 35.9520677,20.7144349 35.8259277,21.1091309 C35.6997878,21.5038268 35.6102704,21.8883445 35.557373,22.2626953 C35.5044756,22.6370461 35.4780273,22.9666327 35.4780273,23.2514648 C35.4780273,23.5525731 35.5085446,23.8312975 35.5695801,24.0876465 C35.6306155,24.3439954 35.7262363,24.5657543 35.8564453,24.7529297 C35.9866543,24.9401051 36.1473786,25.086588 36.338623,25.1923828 C36.5298675,25.2981776 36.7516263,25.3510742 37.0039062,25.3510742 C37.4677758,25.3510742 37.8807762,25.2167982 38.2429199,24.9482422 C38.6050637,24.6796862 38.9224433,24.3358582 39.1950684,23.916748 C39.4676934,23.4976379 39.6955557,23.0256374 39.8786621,22.5007324 C40.0617685,21.9758275 40.2102859,21.4570338 40.3242188,20.9443359 L40.9711914,18.0268555 Z M60.1435547,18.3442383 L57.2260742,18.3442383 L56.2250977,23.0195312 C56.2088215,23.125326 56.1884767,23.2392572 56.1640625,23.3613281 C56.1396483,23.483399 56.117269,23.6054681 56.0969238,23.7275391 C56.0765787,23.84961 56.0582683,23.9655756 56.0419922,24.0754395 C56.0257161,24.1853033 56.0175781,24.2768551 56.0175781,24.3500977 C56.0175781,24.6756201 56.0989575,24.9156893 56.2617188,25.0703125 C56.42448,25.2249357 56.693032,25.3022461 57.0673828,25.3022461 C57.1650396,25.3022461 57.2891431,25.2900392 57.4396973,25.265625 C57.5902514,25.2412108 57.7448723,25.2086591 57.9035645,25.1679688 C58.0622567,25.1272784 58.214843,25.0845543 58.3613281,25.0397949 C58.5078132,24.9950356 58.6258134,24.9563804 58.715332,24.9238281 L58.1171875,27.7802734 C57.9707024,27.8372399 57.7916677,27.8942054 57.5800781,27.9511719 C57.3684885,28.0081383 57.1365573,28.0610349 56.8842773,28.1098633 C56.6319974,28.1586917 56.3695489,28.1993813 56.0969238,28.2319336 C55.8242988,28.2644858 55.5577813,28.2807617 55.2973633,28.2807617 C54.6788706,28.2807617 54.1621115,28.2014168 53.7470703,28.0427246 C53.3320292,27.8840324 53.0004081,27.664308 52.7521973,27.3835449 C52.5039864,27.1027818 52.3290207,26.7752297 52.2272949,26.4008789 C52.1255692,26.0265281 52.074707,25.6196311 52.074707,25.1801758 C52.074707,25.0499668 52.082845,24.8994149 52.0991211,24.7285156 C52.1153972,24.5576163 52.1377766,24.3826506 52.1662598,24.2036133 C52.194743,24.0245759 52.2272947,23.8435068 52.263916,23.6604004 C52.3005373,23.477294 52.3351235,23.3084318 52.3676758,23.1538086 L53.3686523,18.3442383 L51.4399414,18.3442383 L52.1235352,15.5 L53.9667969,15.5 L54.6015625,12.5703125 L58.6665039,11.5693359 L57.8486328,15.5 L60.8149414,15.5 L60.1435547,18.3442383 Z M77.8754883,18.7226562 C77.8754883,19.3655631 77.7391778,19.9555637 77.4665527,20.4926758 C77.1939277,21.0297878 76.7382031,21.4936504 76.0993652,21.8842773 C75.4605274,22.2749043 74.6121472,22.5821115 73.5541992,22.8059082 C72.4962512,23.0297049 71.177905,23.1538085 69.5991211,23.1782227 C69.582845,23.227051 69.574707,23.2697752 69.574707,23.3063965 L69.574707,23.4223633 C69.574707,23.6746432 69.6153967,23.9269193 69.6967773,24.1791992 C69.778158,24.4314791 69.9185374,24.6593414 70.1179199,24.862793 C70.3173024,25.0662445 70.579751,25.2310378 70.9052734,25.3571777 C71.2307959,25.4833177 71.6376929,25.5463867 72.1259766,25.5463867 C72.4189468,25.5463867 72.7383609,25.5199384 73.0842285,25.467041 C73.4300961,25.4141436 73.782062,25.3368332 74.1401367,25.2351074 C74.4982114,25.1333817 74.8542463,25.0113126 75.208252,24.8688965 C75.5622576,24.7264804 75.8898097,24.5698251 76.190918,24.3989258 L75.5927734,27.2797852 C75.3404935,27.4099941 75.0515967,27.5361322 74.7260742,27.6582031 C74.4005518,27.780274 74.0485859,27.8901362 73.670166,27.987793 C73.2917462,28.0854497 72.8889182,28.1627601 72.4616699,28.2197266 C72.0344217,28.276693 71.5970074,28.3051758 71.1494141,28.3051758 C70.2053989,28.3051758 69.395674,28.1668308 68.7202148,27.8901367 C68.0447557,27.6134426 67.4893414,27.2411319 67.0539551,26.7731934 C66.6185688,26.3052548 66.2991547,25.7579784 66.0957031,25.1313477 C65.8922516,24.5047169 65.7905273,23.8374059 65.7905273,23.1293945 C65.7905273,22.0633085 65.9675275,21.050135 66.3215332,20.0898438 C66.6755389,19.1295525 67.1800911,18.2872758 67.8352051,17.5629883 C68.490319,16.8387008 69.2796992,16.2629416 70.2033691,15.8356934 C71.1270391,15.4084451 72.1585229,15.1948242 73.2978516,15.1948242 C74.1197958,15.1948242 74.8196586,15.2924795 75.3974609,15.487793 C75.9752633,15.6831064 76.4472638,15.945555 76.8134766,16.2751465 C77.1796893,16.604738 77.4482413,16.9811177 77.6191406,17.4042969 C77.7900399,17.8274761 77.8754883,18.2669248 77.8754883,18.7226562 Z M74.2011719,18.7714844 C74.2011719,18.4703761 74.0892752,18.2201345 73.8654785,18.020752 C73.6416818,17.8213694 73.3263367,17.7216797 72.9194336,17.7216797 C72.5613589,17.7216797 72.2175309,17.7989901 71.8879395,17.9536133 C71.558348,18.1082365 71.2572442,18.3218574 70.9846191,18.5944824 C70.7119941,18.8671075 70.4780283,19.1926251 70.2827148,19.5710449 C70.0874014,19.9494648 69.9409185,20.3583962 69.8432617,20.7978516 C71.3081128,20.8141277 72.4006312,20.6472999 73.1208496,20.2973633 C73.8410681,19.9474266 74.2011719,19.4388054 74.2011719,18.7714844 Z M97.0966797,18.4785156 C97.0966797,18.6005865 97.0844728,18.7633453 97.0600586,18.9667969 C97.0356444,19.1702484 97.0051271,19.3818348 96.9685059,19.6015625 C96.9318846,19.8212902 96.8932294,20.0349111 96.8525391,20.2424316 C96.8118488,20.4499522 96.775228,20.6269524 96.7426758,20.7734375 L95.2167969,28 L91.347168,28 L92.8486328,20.8710938 C92.8974612,20.6106758 92.9462888,20.3421238 92.9951172,20.0654297 C93.0439456,19.7887356 93.0683594,19.5771492 93.0683594,19.4306641 C93.0683594,19.0400371 92.9686696,18.7287609 92.7692871,18.4968262 C92.5699046,18.2648914 92.2708353,18.1489258 91.8720703,18.1489258 C91.5384098,18.1489258 91.1905129,18.2526845 90.8283691,18.4602051 C90.4662254,18.6677256 90.1264664,18.9423811 89.809082,19.2841797 C89.4916976,19.6259783 89.2129732,20.0186339 88.9729004,20.4621582 C88.7328276,20.9056826 88.5639653,21.3593727 88.4663086,21.8232422 L87.1723633,28 L83.2416992,28 L85.097168,19.4306641 C85.1704105,19.0563132 85.243652,18.6799335 85.3168945,18.3015137 C85.3901371,17.9230938 85.4552406,17.5609555 85.512207,17.2150879 C85.5691735,16.8692203 85.6200356,16.5477717 85.6647949,16.2507324 C85.7095543,15.9536932 85.7441405,15.7034515 85.7685547,15.5 L89.5771484,15.5 C89.5527343,15.7278657 89.5262859,15.9659005 89.4978027,16.2141113 C89.4693195,16.4623222 89.4408367,16.7003569 89.4123535,16.9282227 C89.3838703,17.1560884 89.357422,17.3575024 89.3330078,17.5324707 C89.3085936,17.707439 89.2882488,17.8315426 89.2719727,17.9047852 L89.3208008,17.9047852 C89.6056329,17.5304343 89.9270815,17.1784684 90.2851562,16.848877 C90.643231,16.5192855 91.0236796,16.2324231 91.4265137,15.9882812 C91.8293477,15.7441394 92.2464171,15.5508633 92.6777344,15.4084473 C93.1090516,15.2660312 93.5403624,15.1948242 93.9716797,15.1948242 C95.0052135,15.1948242 95.7844212,15.4816866 96.3093262,16.0554199 C96.8342311,16.6291533 97.0966797,17.4368438 97.0966797,18.4785156 Z" id="Daten" opacity="0.899999976"></path>
                <path d="M21.8245378,16.7878471 C21.8245378,17.8178002 21.7197211,18.8226729 21.5100847,19.8024955 C21.3004482,20.7823181 20.9837196,21.7051605 20.5598893,22.5710502 C20.1360591,23.43694 19.6005827,24.2299008 18.953444,24.9499565 C18.3063054,25.6700122 17.5429667,26.2897976 16.663405,26.8093315 C15.7838433,27.3288653 14.7835278,27.7344602 13.6624284,28.0261283 C12.541329,28.3177965 11.2972009,28.4636283 9.93000653,28.4636283 L2.00031903,28.4636283 L6.1702409,8.8581596 L13.0608659,8.8581596 C14.5009773,8.8581596 15.7656131,9.05412118 16.8548112,9.44605022 C17.9440094,9.83797926 18.8577372,10.3825702 19.5960222,11.0798393 C20.3343071,11.7771084 20.8902911,12.6110844 21.2639909,13.5817924 C21.6376907,14.5525004 21.8245378,15.6211746 21.8245378,16.7878471 Z M17.1487565,17.129644 C17.1487565,16.4004737 17.0462185,15.7465088 16.8411393,15.1677299 C16.6360602,14.588951 16.3216102,14.099047 15.89778,13.6980033 C15.4739497,13.2969597 14.9384733,12.9893456 14.2913347,12.7751518 C13.644196,12.560958 12.8785787,12.4538627 11.9944597,12.4538627 L9.84797528,12.4538627 L7.2093034,24.8815971 L9.90266278,24.8815971 C11.0146475,24.8815971 12.0172416,24.6970286 12.9104753,24.3278862 C13.8037089,23.9587437 14.564769,23.4346604 15.1936784,22.7556205 C15.8225878,22.0765807 16.3056559,21.2608336 16.6428972,20.3083549 C16.9801384,19.3558762 17.1487565,18.2963165 17.1487565,17.129644 Z M42.2858653,23.8425346 C42.2220629,24.1250881 42.1605401,24.4668815 42.101295,24.8679252 C42.0420499,25.2689689 41.987363,25.6859569 41.9372325,26.1189018 C41.8871021,26.5518467 41.8460868,26.9756705 41.8141856,27.3903862 C41.7822844,27.8051018 41.7663341,28.1628456 41.7663341,28.4636283 L37.3913341,28.4636283 C37.3913341,28.3269089 37.3981699,28.1514549 37.4118419,27.9372612 C37.4255138,27.7230674 37.4414642,27.5043196 37.4596935,27.2810112 C37.4779227,27.0577027 37.4984303,26.8389549 37.5212169,26.6247612 C37.5440035,26.4105674 37.5645111,26.2305562 37.5827403,26.0847221 L37.5280528,26.0847221 C37.2637286,26.4401926 36.9902938,26.7819861 36.7077403,27.1101127 C36.4251868,27.4382394 36.1107369,27.7276245 35.764381,27.9782768 C35.4180251,28.2289291 35.0329378,28.4294479 34.6091075,28.5798393 C34.1852773,28.7302307 33.6953733,28.8054252 33.139381,28.8054252 C32.4557838,28.8054252 31.8473914,28.6823796 31.3141856,28.4362846 C30.7809799,28.1901896 30.3320911,27.8347244 29.967506,27.3698783 C29.6029208,26.9050323 29.3249288,26.3376551 29.1335216,25.6677299 C28.9421144,24.9978047 28.8464122,24.2390232 28.8464122,23.3913627 C28.8464122,22.9629752 28.8942633,22.4366132 28.9899669,21.8122612 C29.0856705,21.1879091 29.2588458,20.5316656 29.5094981,19.8435112 C29.7601504,19.1553567 30.1087798,18.4717698 30.5553966,17.7927299 C31.0020134,17.1136901 31.5739478,16.5007405 32.2712169,15.9538627 C32.968486,15.406985 33.8115765,14.9649321 34.8005138,14.6276908 C35.789451,14.2904496 36.9538274,14.1218315 38.2936778,14.1218315 C38.8132117,14.1218315 39.3350164,14.1423391 39.8591075,14.1833549 C40.3831987,14.2243707 40.8981675,14.2790577 41.4040294,14.3474174 C41.9098913,14.4157771 42.3997953,14.4955289 42.873756,14.5866752 C43.3477167,14.6778215 43.7897695,14.7689664 44.1999278,14.8601127 L42.2858653,23.8425346 Z M39.3464122,17.2937065 C39.1367757,17.2481333 38.9043562,17.213954 38.6491466,17.1911674 C38.393937,17.1683808 38.1524029,17.1569877 37.9245372,17.1569877 C37.2956278,17.1569877 36.744201,17.2618044 36.2702403,17.4714408 C35.7962796,17.6810773 35.3838489,17.9545121 35.0329356,18.2917533 C34.6820224,18.6289946 34.3880801,19.0118033 34.1510997,19.4401908 C33.9141194,19.8685784 33.7249936,20.3037954 33.5837169,20.7458549 C33.4424401,21.1879144 33.3421807,21.6185742 33.2829356,22.0378471 C33.2236906,22.45712 33.1940685,22.826257 33.1940685,23.145269 C33.1940685,23.4825102 33.2282478,23.7946816 33.2966075,24.0817924 C33.3649672,24.3689032 33.4720625,24.6172731 33.6178966,24.8269096 C33.7637306,25.0365461 33.9437419,25.2006069 34.1579356,25.3190971 C34.3721294,25.4375873 34.6204993,25.4968315 34.9030528,25.4968315 C35.4225867,25.4968315 35.8851472,25.3464423 36.2907481,25.0456596 C36.6963491,24.7448768 37.0518143,24.3597895 37.3571544,23.8903862 C37.6624945,23.4209828 37.9177002,22.8923422 38.1227794,22.3044487 C38.3278585,21.7165551 38.494198,21.1355062 38.6218028,20.5612846 L39.3464122,17.2937065 Z M60.8194585,17.6491752 L57.5518804,17.6491752 L56.4307866,22.8855033 C56.4125574,23.0039935 56.3897711,23.1315964 56.3624273,23.2683158 C56.3350834,23.4050353 56.3100185,23.5417527 56.2872319,23.6784721 C56.2644454,23.8151915 56.2439378,23.945073 56.2257085,24.0681205 C56.2074793,24.191168 56.1983648,24.2937061 56.1983648,24.3757377 C56.1983648,24.7403229 56.2895097,25.0092004 56.4718023,25.1823783 C56.6540948,25.3555563 56.9548731,25.442144 57.374146,25.442144 C57.4835216,25.442144 57.6225176,25.4284722 57.7911382,25.4011283 C57.9597588,25.3737845 58.1329342,25.3373265 58.3106694,25.2917533 C58.4884047,25.2461802 58.6593014,25.1983291 58.8233648,25.1481987 C58.9874281,25.0980682 59.1195882,25.0547744 59.2198491,25.0183158 L58.5499273,28.2175346 C58.3858639,28.281337 58.1853451,28.3451384 57.9483648,28.4089408 C57.7113844,28.4727432 57.4516214,28.5319874 57.1690679,28.5866752 C56.8865144,28.641363 56.592572,28.6869355 56.2872319,28.723394 C55.9818919,28.7598525 55.6833923,28.7780815 55.3917241,28.7780815 C54.6990123,28.7780815 54.1202421,28.6892152 53.655396,28.5114799 C53.1905499,28.3337446 52.8191344,28.0876534 52.5411382,27.7731987 C52.263142,27.458744 52.0671804,27.0918857 51.9532476,26.6726127 C51.8393147,26.2533398 51.7823491,25.7976152 51.7823491,25.3054252 C51.7823491,25.1595912 51.7914636,24.9909731 51.8096929,24.7995658 C51.8279221,24.6081586 51.852987,24.4121971 51.8848882,24.2116752 C51.9167894,24.0111534 51.9532474,23.8083559 51.9942632,23.6032768 C52.035279,23.3981976 52.0740156,23.2090719 52.1104741,23.035894 L53.2315679,17.6491752 L51.0714116,17.6491752 L51.8370366,14.4636283 L53.9014898,14.4636283 L54.6124273,11.1823783 L59.1651616,10.0612846 L58.249146,14.4636283 L61.5714116,14.4636283 L60.8194585,17.6491752 Z M80.6792236,18.0730033 C80.6792236,18.793059 80.5265558,19.4538597 80.2212157,20.0554252 C79.9158757,20.6569907 79.4054641,21.1765168 78.6899657,21.614019 C77.9744674,22.0515212 77.0242816,22.3955932 75.8393798,22.6462455 C74.6544781,22.8968978 73.1779303,23.0358938 71.4096923,23.0632377 C71.3914631,23.1179255 71.3823486,23.1657766 71.3823486,23.2067924 L71.3823486,23.3366752 C71.3823486,23.6192287 71.427921,23.901778 71.5190673,24.1843315 C71.6102136,24.466885 71.7674386,24.7220907 71.990747,24.9499565 C72.2140554,25.1778222 72.5079978,25.3623907 72.8725829,25.5036674 C73.2371681,25.6449442 73.6928927,25.7155815 74.2397704,25.7155815 C74.5678971,25.7155815 74.9256409,25.6859594 75.3130126,25.6267143 C75.7003844,25.5674692 76.0945861,25.4808815 76.4956298,25.3669487 C76.8966735,25.2530158 77.2954325,25.1162984 77.6919189,24.9567924 C78.0884052,24.7972864 78.4552635,24.6218324 78.7925048,24.4304252 L78.1225829,27.6569877 C77.8400294,27.8028218 77.516465,27.9440964 77.1518798,28.0808158 C76.7872947,28.2175353 76.3930929,28.3405809 75.9692626,28.4499565 C75.5454324,28.559332 75.094265,28.6459197 74.615747,28.7097221 C74.137229,28.7735245 73.647325,28.8054252 73.1460204,28.8054252 C72.0887235,28.8054252 71.1818315,28.6504789 70.4253173,28.3405815 C69.6688031,28.0306841 69.046739,27.6136961 68.5591064,27.0896049 C68.0714737,26.5655137 67.7137299,25.9525641 67.4858642,25.2507377 C67.2579985,24.5489113 67.1440673,23.8015229 67.1440673,23.0085502 C67.1440673,21.8145338 67.3423075,20.6797796 67.7387939,19.6042533 C68.1352802,18.5287271 68.7003787,17.5853772 69.4341064,16.7741752 C70.167834,15.9629732 71.0519397,15.3181229 72.0864501,14.8396049 C73.1209605,14.3610869 74.2762224,14.1218315 75.5522704,14.1218315 C76.472848,14.1218315 77.2566943,14.2312054 77.9038329,14.4499565 C78.5509716,14.6687076 79.0796121,14.9626499 79.4897704,15.3317924 C79.8999287,15.7009349 80.200707,16.1224801 80.3921142,16.5964408 C80.5835214,17.0704015 80.6792236,17.5625841 80.6792236,18.0730033 Z M76.5639892,18.1276908 C76.5639892,17.7904496 76.4386649,17.5101789 76.1880126,17.2868705 C75.9373603,17.0635621 75.5841738,16.9519096 75.1284423,16.9519096 C74.7273986,16.9519096 74.3423113,17.0384973 73.9731689,17.2116752 C73.6040264,17.3848532 73.2667902,17.6241086 72.9614501,17.9294487 C72.6561101,18.2347887 72.3940684,18.5993684 72.1753173,19.0231987 C71.9565662,19.4470289 71.7925054,19.9050321 71.6831298,20.3972221 C73.323763,20.4154514 74.5473836,20.2286043 75.3540282,19.8366752 C76.1606729,19.4447462 76.5639892,18.8750904 76.5639892,18.1276908 Z M102.206957,17.7995658 C102.206957,17.9362853 102.193286,18.1185751 102.165942,18.3464408 C102.138598,18.5743066 102.104419,18.8112834 102.063403,19.0573783 C102.022387,19.3034733 101.979093,19.5427287 101.93352,19.7751518 C101.887947,20.0075748 101.846932,20.205815 101.810473,20.3698783 L100.101489,28.4636283 L95.7675042,28.4636283 L97.4491449,20.4792533 C97.5038326,20.1875852 97.5585196,19.886807 97.6132074,19.5769096 C97.6678951,19.2670122 97.6952386,19.0300354 97.6952386,18.8659721 C97.6952386,18.4284699 97.5835861,18.0798406 97.3602777,17.8200737 C97.1369693,17.5603067 96.8020117,17.4304252 96.3553949,17.4304252 C95.9816951,17.4304252 95.5920505,17.546635 95.1864496,17.779058 C94.7808486,18.0114811 94.4003185,18.3190952 94.044848,18.7019096 C93.6893775,19.084724 93.3772061,19.5244983 93.1083246,20.0212455 C92.839443,20.5179928 92.6503173,21.0261257 92.5409417,21.5456596 L91.091723,28.4636283 L86.6893792,28.4636283 L88.7675042,18.8659721 C88.8495359,18.4466992 88.9315663,18.0251539 89.013598,17.6013237 C89.0956296,17.1774934 89.1685456,16.7718985 89.232348,16.3845268 C89.2961504,15.9971551 89.353116,15.6371326 89.4032464,15.3044487 C89.4533769,14.9717647 89.4921135,14.6914941 89.5194574,14.4636283 L93.7850824,14.4636283 C93.7577385,14.718838 93.7281164,14.9854369 93.6962152,15.263433 C93.664314,15.5414292 93.6324133,15.8080281 93.6005121,16.0632377 C93.5686109,16.3184473 93.5389888,16.544031 93.5116449,16.7399955 C93.484301,16.9359601 93.4615147,17.0749561 93.4432855,17.1569877 L93.497973,17.1569877 C93.816985,16.7377148 94.1770074,16.343513 94.5780511,15.9743705 C94.9790948,15.6052281 95.4051973,15.2839422 95.8563714,15.0105033 C96.3075456,14.7370645 96.7746633,14.5205953 97.2577386,14.3610893 C97.7408139,14.2015833 98.223882,14.1218315 98.7069574,14.1218315 C99.8645152,14.1218315 100.737228,14.4431173 101.325121,15.0856987 C101.913015,15.72828 102.206957,16.6328933 102.206957,17.7995658 Z" id="Daten" opacity="0.150000006" transform="translate(52.103638, 18.831792) rotate(-4.000000) translate(-52.103638, -18.831792) "></path>
            </g>
        </g>
    </g>
</svg>